Patient4_TMGait_0pt6_01_left_38_GRF.mot
version=1
nRows=39
nColumns=19
inDegrees=no
endheader
time	F1x	F1y	F1z	M1x	M1y	M1z	F2x	F2y	F2z	M2x	M2y	M2z	EC1x	EC1y	EC1z	EC2x	EC2y	EC2z
46.3	3.0317	4.6878	4.8781	-3.1308	0.62556	6.1589	-36.3749	673.6254	-53.2673	280.3721	70.6161	680.892	-0.0592	0.0182	-0.0073	-0.0462	0.0165	0.9585
46.3119	1.8457	3.5846	3.2496	-2.234	0.37354	4.572	-34.826	667.4868	-52.2116	277.5784	67.5434	671.8022	-0.0592	0.0182	-0.0073	-0.0462	0.0165	0.9585
46.3237	0.84028	2.6766	1.8847	-1.4862	0.146	3.2798	-32.9594	662.78	-51.0138	275.4549	64.3439	663.4157	-0.0592	0.0182	-0.0073	-0.0462	0.0165	0.9585
46.3356	0.073403	2.0274	0.85697	-0.9332	-0.040491	2.3668	-30.7684	660.8782	-49.7312	274.645	61.1444	657.0622	-0.0592	0.0182	-0.0073	-0.0462	0.0165	0.9585
46.3474	-0.46268	1.6371	0.15007	-0.57696	-0.17546	1.8171	-28.1973	662.8644	-48.4418	275.6588	58.0113	653.7532	-0.0592	0.0182	-0.0073	-0.0462	0.0165	0.9585
46.3593	-0.80189	1.4831	-0.27642	-0.39629	-0.27483	1.586	-25.1698	669.3738	-47.1952	278.8009	54.9353	654.061	-0.0592	0.0182	-0.0073	-0.0462	0.0165	0.9585
46.3711	-0.98278	1.5243	-0.48772	-0.35958	-0.34312	1.6019	-21.5745	680.5318	-46.0339	284.1438	51.8723	658.0623	-0.0592	0.0182	-0.0073	-0.0462	0.0165	0.9585
46.383	-1.0568	1.7205	-0.53051	-0.43262	-0.40637	1.7957	-17.3326	695.9541	-44.971	291.5231	48.754	665.3767	-0.0592	0.0182	-0.0073	-0.0462	0.0165	0.9585
46.3949	-1.0658	2.0061	-0.45545	-0.57811	-0.47556	2.0642	-12.3982	714.7511	-44.0215	300.5419	45.5279	675.1877	-0.0592	0.0182	-0.0073	-0.0462	0.0165	0.9585
46.4067	-1.0398	2.3141	-0.29445	-0.75756	-0.56556	2.3139	-6.8458	735.6632	-43.2119	310.6164	42.1998	686.4323	-0.0592	0.0182	-0.0073	-0.0462	0.0165	0.9585
46.4186	-0.99957	2.5372	-0.073755	-0.92246	-0.67914	2.4135	-0.90851	757.1279	-42.5711	321.0079	38.8504	697.871	-0.0592	0.0182	-0.0073	-0.0462	0.0165	0.9585
46.4304	-0.94734	2.5429	0.17954	-1.0137	-0.8119	2.2274	5.0235	777.4227	-42.1414	330.8826	35.6472	708.2073	-0.0592	0.0182	-0.0073	-0.0462	0.0165	0.9585
46.4423	-0.87868	2.1421	0.43918	-0.95045	-0.94975	1.584	10.4821	794.8319	-41.9332	339.4025	32.7785	716.2089	-0.0592	0.0182	-0.0073	-0.0462	0.0165	0.9585
46.4541	-0.78086	1.154	0.66458	-0.64894	-1.0594	0.33272	15.0024	807.8566	-41.957	345.8275	30.4462	720.8698	-0.0592	0.0182	-0.0073	-0.0462	0.0165	0.9585
46.466	-0.61547	-0.52759	0.82239	-0.055048	-1.0991	-1.5916	18.2131	815.4077	-42.1907	349.6117	28.797	721.5092	-0.0592	0.0182	-0.0073	-0.0462	0.0165	0.9585
46.4779	-0.28282	-2.7886	0.86324	0.79303	-0.99142	-4.0345	19.9454	816.8979	-42.6288	350.4546	27.914	717.7994	-0.0592	0.0182	-0.0073	-0.0462	0.0165	0.9585
46.4897	0.37162	-5.1885	0.77143	1.7215	-0.65311	-6.5334	20.3249	812.3188	-43.2757	348.3416	27.7707	709.7868	-0.0592	0.0182	-0.0073	-0.0462	0.0165	0.9585
46.5016	1.5908	-6.8893	0.49878	2.4043	0.063168	-8.2248	19.7199	802.2881	-44.1226	343.5614	28.225	697.9394	-0.0592	0.0182	-0.0073	-0.0462	0.0165	0.9585
46.5134	3.6269	-6.6837	0.023789	2.3753	1.2927	-7.8509	18.6479	787.957	-45.1339	336.6618	29.0478	683.0852	-0.0592	0.0182	-0.0073	-0.0462	0.0165	0.9585
46.5253	6.693	-3.0166	-0.73273	1.0397	3.2071	-3.7747	17.655	770.826	-46.2285	328.3574	29.9505	666.3076	-0.0592	0.0182	-0.0073	-0.0462	0.0165	0.9585
46.5371	10.8296	5.9314	-1.8094	-2.2912	5.8746	5.9627	17.2464	752.4321	-47.2949	319.3882	30.6336	648.7083	-0.0592	0.0182	-0.0073	-0.0462	0.0165	0.9585
46.549	15.81	22.1012	-3.2538	-8.3487	9.2548	23.4604	17.7866	734.0299	-48.1872	310.3705	30.8246	631.1831	-0.0592	0.0182	-0.0073	-0.0462	0.0165	0.9585
46.5609	20.9538	47.2024	-5.0183	-17.7721	13.0342	50.598	19.4559	716.3164	-48.7495	301.6753	30.3193	614.2116	-0.0592	0.0182	-0.0073	-0.0462	0.0165	0.9585
46.5727	25.0039	82.142	-6.9542	-30.8949	16.5628	88.4046	22.2202	699.3231	-48.8101	293.3769	28.9884	597.7717	-0.0592	0.0182	-0.0073	-0.0462	0.0165	0.9585
46.5846	26.1228	126.3009	-8.7272	-47.4759	18.7925	136.2926	25.8634	682.4555	-48.1906	285.2711	26.7727	581.3758	-0.0592	0.0182	-0.0073	-0.0462	0.0165	0.9585
46.5964	22.7973	177.3232	-9.9064	-66.6108	18.6991	191.8041	30.0444	664.6719	-46.7338	276.9511	23.6888	564.2003	-0.0592	0.0182	-0.0073	-0.0462	0.0165	0.9585
46.6083	15.2867	231.3306	-9.9863	-86.8017	15.8414	250.7782	34.3727	644.7435	-44.3428	267.9187	19.8292	545.283	-0.0592	0.0182	-0.0073	-0.0462	0.0165	0.9585
46.6201	5.9628	283.1067	-8.3948	-106.0515	10.4888	307.3928	38.4676	621.4958	-41.0294	257.6834	15.3766	523.7162	-0.0592	0.0182	-0.0073	-0.0462	0.0165	0.9585
46.632	-3.0048	327.8319	-4.9663	-122.5686	3.3295	356.0822	42.0134	593.9751	-36.8985	245.8389	10.5607	498.7722	-0.0592	0.0182	-0.0073	-0.0462	0.0165	0.9585
46.6439	-10.3682	363.6604	-0.5214	-135.6973	-4.27	394.6089	44.7676	561.6588	-32.1263	232.1427	5.628	470.0903	-0.0592	0.0182	-0.0073	-0.0462	0.0165	0.9585
46.6557	-15.6344	390.9803	4.1629	-145.6404	-11.2515	423.3766	46.5886	524.444	-26.9677	216.5258	0.8347	437.6283	-0.0592	0.0182	-0.0073	-0.0462	0.0165	0.9585
46.6676	-18.971	411.5372	8.4253	-153.1059	-16.9552	444.3193	47.385	482.6667	-21.7079	199.0976	-3.5704	401.6901	-0.0592	0.0182	-0.0073	-0.0462	0.0165	0.9585
46.6794	-20.8887	427.8591	11.9015	-159.0698	-21.1775	460.22	47.0733	437.0729	-16.5954	180.1439	-7.3736	362.888	-0.0592	0.0182	-0.0073	-0.0462	0.0165	0.9585
46.6913	-21.8922	442.7718	14.3814	-164.6071	-23.9106	474.1176	45.5505	388.8143	-11.8435	160.1202	-10.3773	322.1753	-0.0592	0.0182	-0.0073	-0.0462	0.0165	0.9585
46.7031	-22.4425	459.0566	15.9142	-170.7438	-25.4014	488.9726	42.7642	339.3631	-7.6413	139.6223	-12.4139	280.7535	-0.0592	0.0182	-0.0073	-0.0462	0.0165	0.9585
46.715	-22.7976	478.9917	16.7492	-178.3006	-26.037	507.2104	38.738	290.392	-4.1463	119.336	-13.376	239.982	-0.0592	0.0182	-0.0073	-0.0462	0.0165	0.9585
46.7269	-23.0858	504.0364	17.3411	-187.7677	-26.3579	530.3749	33.6867	243.5964	-1.4569	99.9626	-13.278	201.2082	-0.0592	0.0182	-0.0073	-0.0462	0.0165	0.9585
46.7387	-23.4026	534.5163	18.285	-199.2097	-27.0206	558.7747	27.9668	200.4362	0.39878	82.1094	-12.2512	165.5704	-0.0592	0.0182	-0.0073	-0.0462	0.0165	0.9585
46.7506	-23.8207	569.7417	20.037	-212.328	-28.5236	591.6795	22.0345	161.894	1.5095	66.1898	-10.5585	133.8016	-0.0592	0.0182	-0.0073	-0.0462	0.0165	0.9585
